<?xml version="1.0" standalone="no"?>
<!DOCTYPE svg PUBLIC "-//W3C//DTD SVG 20010904//EN"
 "http://www.w3.org/TR/2001/REC-SVG-20010904/DTD/svg10.dtd">
<svg version="1.0" xmlns="http://www.w3.org/2000/svg"
 width="291.000000pt" height="291.000000pt" viewBox="0 0 291.000000 291.000000"
 preserveAspectRatio="xMidYMid meet">
<metadata>
Created by potrace 1.11, written by Peter Selinger 2001-2013
</metadata>
<g transform="translate(0.000000,291.000000) scale(0.100000,-0.100000)"
fill="#000000" stroke="none">
<path d="M2018 2849 c-21 -12 -33 -70 -20 -96 9 -16 -3 -39 -68 -134 -44 -63
-83 -118 -88 -124 -4 -5 -19 -28 -32 -51 -14 -22 -30 -39 -37 -37 -7 2 -21 0
-31 -6 -17 -9 -21 -7 -26 14 -4 14 -11 25 -16 25 -6 0 -10 5 -10 10 0 6 -19
41 -42 78 -24 36 -47 74 -53 84 -5 9 -22 37 -37 61 -23 37 -26 50 -18 76 24
86 -70 141 -120 71 -19 -27 -20 -35 -11 -59 11 -26 6 -36 -79 -160 -49 -73
-90 -137 -90 -142 0 -5 -4 -9 -8 -9 -5 0 -14 -11 -20 -24 -8 -18 -18 -24 -40
-23 -24 2 -39 14 -76 65 -25 34 -46 64 -46 67 0 6 -60 95 -94 139 -19 25 -26
41 -19 43 7 3 15 20 19 39 5 26 2 40 -12 56 -44 48 -95 42 -118 -14 -14 -31
-10 -78 5 -78 5 0 -17 -35 -49 -77 -32 -43 -69 -96 -82 -118 -86 -145 -129
-165 -180 -86 -16 25 -34 51 -40 58 -5 7 -10 15 -10 18 0 8 -44 69 -52 73 -5
2 -8 10 -8 18 0 8 -4 14 -10 14 -5 0 -12 11 -16 25 -3 14 -13 29 -22 34 -14 8
-14 12 2 46 14 29 16 42 7 64 -33 79 -131 47 -131 -43 0 -27 25 -46 58 -46 13
0 31 -18 53 -52 18 -29 36 -55 39 -58 3 -3 36 -51 74 -107 52 -80 65 -106 58
-120 -5 -10 -8 -33 -6 -51 4 -30 -20 -82 -47 -102 -3 -3 -17 -23 -31 -45 -14
-22 -39 -56 -56 -75 -17 -19 -39 -52 -49 -72 -10 -21 -21 -38 -25 -38 -5 0 -8
-7 -8 -15 0 -10 -10 -15 -29 -15 -22 0 -31 -7 -40 -28 -23 -56 12 -111 63 -98
18 4 27 -4 56 -52 18 -31 36 -59 40 -62 12 -9 70 -98 70 -107 0 -5 8 -16 18
-25 9 -8 25 -26 34 -39 16 -20 16 -25 3 -39 -20 -22 -19 -70 1 -98 14 -21 14
-25 -7 -60 -12 -20 -34 -53 -48 -72 -14 -19 -30 -42 -36 -51 -70 -115 -91
-139 -121 -139 -41 0 -74 -32 -74 -74 0 -45 29 -70 75 -64 32 4 38 0 57 -31
12 -20 26 -37 30 -39 4 -2 8 -8 8 -13 0 -9 38 -67 51 -79 3 -3 23 -32 44 -65
22 -33 46 -65 53 -71 12 -9 12 -15 -3 -43 -13 -27 -14 -38 -5 -61 10 -25 7
-34 -36 -96 -95 -138 -104 -152 -104 -161 0 -20 -36 -41 -63 -38 -15 2 -34 -3
-41 -11 -8 -8 -19 -14 -25 -14 -12 0 -15 -48 -5 -75 4 -8 18 -22 33 -29 22
-12 31 -12 59 -1 40 17 61 58 44 85 -14 23 0 53 75 163 29 43 53 82 53 87 0 4
7 10 15 14 8 3 15 12 15 21 0 11 11 15 44 15 38 0 46 -4 67 -35 13 -19 27 -35
31 -35 3 0 11 -12 17 -27 6 -16 34 -64 61 -107 35 -54 47 -81 40 -86 -7 -4
-12 -25 -12 -46 0 -74 91 -102 135 -41 19 24 20 31 8 62 -11 30 -10 37 4 51 8
9 23 30 32 47 8 18 29 48 44 68 16 20 29 40 29 44 0 4 8 15 19 24 21 19 55 81
47 88 -8 8 -26 -7 -26 -22 0 -7 -7 -15 -15 -19 -8 -3 -15 -11 -15 -18 0 -7
-10 -24 -22 -38 -13 -14 -29 -37 -37 -52 -8 -16 -18 -28 -23 -28 -4 0 -8 -7
-8 -15 0 -8 -3 -15 -8 -15 -4 0 -16 -15 -26 -34 -16 -30 -22 -33 -61 -32 l-43
1 -63 104 c-35 56 -69 111 -74 121 -6 10 -17 26 -25 35 -8 9 -13 32 -12 51 2
19 -2 42 -7 52 -10 18 -8 21 44 103 5 9 36 59 68 110 76 124 78 127 112 131
26 3 34 -3 61 -42 18 -25 40 -61 51 -80 20 -38 54 -92 63 -100 3 -3 20 -27 38
-54 29 -41 32 -52 23 -76 -5 -16 -8 -35 -7 -44 4 -29 38 -56 71 -56 25 0 36
-7 56 -38 14 -20 47 -67 72 -105 26 -37 47 -70 47 -73 0 -3 12 -21 27 -40 20
-26 23 -38 15 -46 -18 -18 -14 -53 7 -79 37 -46 131 -19 131 37 0 13 -4 26
-10 29 -15 10 -13 14 43 102 28 45 70 112 92 147 37 61 43 66 75 66 31 0 40
-6 71 -47 19 -27 53 -77 74 -113 21 -36 43 -66 47 -68 4 -2 8 -9 8 -16 0 -7 9
-21 20 -31 14 -13 17 -22 10 -36 -20 -37 18 -89 65 -89 53 0 96 65 64 97 -9 9
-8 16 5 28 9 9 16 20 16 25 0 7 97 157 110 170 10 10 31 45 36 63 5 12 17 17
44 17 38 0 39 -1 130 -136 91 -135 91 -135 76 -166 -14 -26 -14 -32 -1 -52 25
-37 57 -47 94 -28 29 14 32 19 30 56 -3 47 -35 76 -74 68 -18 -3 -27 1 -32 14
-9 25 -87 146 -136 212 -32 43 -37 55 -27 67 7 9 10 32 8 57 -4 33 1 54 21 90
14 27 29 48 34 48 4 0 7 5 7 11 0 6 14 31 30 56 17 24 30 48 30 54 0 5 4 9 9
9 5 0 14 14 20 30 9 27 14 30 50 30 28 0 46 6 61 22 24 26 25 40 5 78 -14 27
-33 35 -70 31 -10 -1 -143 203 -189 289 -10 19 -24 38 -30 43 -8 5 -8 9 0 15
31 20 37 76 13 108 -6 7 2 26 20 51 16 22 37 55 46 74 10 19 21 36 25 39 3 3
15 21 26 40 10 19 22 37 25 40 3 3 16 24 29 48 20 36 28 42 56 42 34 0 64 32
64 68 0 27 -38 72 -60 72 -17 0 -36 25 -83 110 -11 19 -46 76 -78 125 -63 96
-68 110 -43 119 16 6 14 29 -9 74 -7 15 -7 26 -2 30 11 8 48 60 58 82 4 8 16
29 27 45 11 17 23 37 27 45 24 54 75 120 92 120 29 0 51 27 51 64 0 42 -26 66
-71 66 -27 0 -40 -7 -57 -30 -27 -36 -28 -52 -2 -75 11 -10 20 -23 20 -28 0
-6 -29 -59 -65 -118 -36 -59 -65 -112 -65 -118 0 -6 -5 -11 -10 -11 -6 0 -15
-11 -20 -25 -6 -16 -15 -23 -24 -19 -8 3 -23 1 -35 -5 -16 -9 -21 -8 -26 9 -3
10 -28 52 -54 93 -27 41 -52 84 -56 96 -3 11 -11 21 -16 21 -5 0 -9 5 -9 11 0
6 -11 25 -26 44 -15 21 -21 36 -15 40 6 3 11 29 11 56 0 44 -3 51 -26 59 -32
12 -54 12 -76 -1z m78 -34 c15 -23 15 -27 0 -50 -19 -28 -25 -30 -61 -13 -30
14 -32 41 -5 68 27 27 46 25 66 -5z m-571 -23 c8 -22 -22 -62 -48 -62 -47 0
-65 56 -26 84 24 16 63 5 74 -22z m-606 9 c25 -25 17 -59 -16 -72 -51 -19 -84
32 -46 73 21 23 38 23 62 -1z m1692 1 c14 -16 13 -20 -7 -41 -38 -41 -99 -8
-74 40 14 24 60 25 81 1z m-2271 -11 c14 -27 13 -47 -5 -65 -23 -23 -65 -1
-65 34 0 48 49 69 70 31z m1191 -119 c15 -22 30 -49 34 -61 3 -11 11 -21 16
-21 5 0 9 -5 9 -11 0 -5 26 -49 57 -97 53 -80 58 -92 59 -146 1 -33 -3 -64 -7
-70 -36 -44 -109 -147 -109 -155 0 -5 -4 -11 -10 -13 -5 -1 -29 -32 -52 -67
-40 -59 -46 -64 -80 -65 -31 -1 -39 3 -48 24 -13 33 -32 63 -46 72 -7 4 -15
19 -18 33 -4 14 -11 25 -16 25 -6 0 -10 7 -10 15 0 8 -4 15 -9 15 -5 0 -14 14
-21 30 -7 17 -16 30 -21 30 -5 0 -9 5 -9 12 0 6 -7 19 -16 29 -14 15 -14 23
-4 54 10 30 10 42 -1 62 -9 16 -10 29 -4 37 45 61 171 248 188 277 18 31 25
35 55 34 29 -2 40 -10 63 -43z m590 -19 c24 -38 48 -77 54 -88 7 -11 22 -38
34 -59 12 -22 33 -53 46 -70 17 -23 21 -40 18 -64 -3 -18 0 -39 7 -47 10 -12
3 -30 -36 -97 -26 -46 -52 -88 -58 -93 -15 -14 -67 -93 -91 -138 -18 -35 -23
-37 -60 -35 -28 2 -43 9 -50 23 -5 11 -28 49 -50 85 -57 93 -63 103 -71 120
-4 8 -20 33 -35 55 -24 36 -25 43 -13 60 17 23 18 49 2 74 -10 16 -7 25 15 54
15 20 27 40 27 46 0 6 4 11 9 11 4 0 28 30 51 68 123 193 135 198 201 95z
m-1201 38 c0 -5 6 -16 13 -23 15 -17 34 -46 50 -78 6 -14 20 -35 31 -47 10
-12 24 -31 30 -41 6 -11 26 -41 44 -66 28 -39 31 -49 21 -67 -6 -12 -9 -38 -5
-58 5 -32 -2 -47 -71 -151 -42 -63 -87 -131 -99 -150 -22 -33 -26 -35 -69 -32
-25 2 -45 7 -45 12 0 4 -30 55 -67 114 -112 175 -113 177 -100 197 8 13 7 29
-2 60 -11 37 -11 44 3 55 9 6 16 14 16 17 0 9 80 128 117 173 18 23 33 45 33
49 0 5 7 17 17 27 17 19 83 26 83 9z m1450 -306 c10 -12 10 -21 2 -40 -19 -41
-82 -28 -82 17 0 33 58 50 80 23z m-1747 -25 c32 -45 -8 -101 -57 -79 -37 17
-41 49 -10 77 31 27 49 28 67 2z m583 -4 c11 -45 2 -61 -37 -64 -31 -3 -37 1
-42 20 -9 31 18 68 48 68 18 0 26 -7 31 -24z m590 9 c4 -8 3 -26 0 -40 -11
-41 -76 -28 -76 15 0 36 64 57 76 25z m575 -97 c7 -13 15 -25 18 -28 7 -6 20
-26 72 -115 22 -38 49 -83 59 -100 32 -49 33 -55 16 -74 -20 -22 -21 -69 -1
-91 14 -16 10 -25 -43 -106 -90 -137 -116 -177 -131 -206 -11 -23 -20 -28 -50
-28 -36 0 -37 2 -121 143 -46 78 -88 144 -92 145 -11 5 -10 40 2 61 6 12 6 28
-2 47 -10 26 -6 35 36 97 25 37 46 71 46 75 0 4 10 18 23 32 13 14 38 52 57
85 18 33 38 66 43 73 16 20 55 14 68 -10z m-565 -27 c10 -20 30 -54 44 -76 14
-22 37 -61 50 -87 14 -27 28 -48 32 -48 5 0 8 -5 8 -12 0 -6 9 -22 21 -34 19
-20 19 -26 8 -63 -11 -36 -10 -43 6 -61 17 -18 17 -21 1 -52 -22 -42 -93 -155
-129 -201 -15 -20 -27 -40 -27 -46 0 -6 -4 -11 -10 -11 -5 0 -10 -7 -10 -15 0
-11 -11 -15 -42 -15 -24 0 -49 -7 -60 -17 -22 -20 -23 -70 -2 -94 15 -17 14
-21 -13 -56 -49 -64 -153 -222 -153 -233 0 -5 -4 -10 -8 -10 -5 0 -14 -11 -20
-24 -7 -15 -21 -25 -40 -28 -26 -4 -33 1 -61 43 -17 26 -31 53 -31 58 0 6 -4
11 -9 11 -5 0 -14 14 -21 30 -7 17 -16 30 -21 30 -5 0 -9 4 -9 9 0 5 -23 45
-50 89 -42 65 -49 83 -42 103 5 13 6 37 1 53 -10 33 -9 33 116 224 77 117 81
121 115 121 31 1 39 -5 70 -52 19 -28 46 -72 60 -97 38 -70 104 -170 113 -170
16 0 5 30 -28 79 -19 28 -35 53 -35 57 0 3 -13 26 -30 51 -16 24 -30 46 -30
49 0 3 -16 26 -34 50 -31 40 -34 48 -24 70 9 18 9 33 1 54 -9 25 -6 35 40 101
27 41 69 100 93 132 24 31 44 62 44 67 0 6 4 10 8 10 5 0 14 11 19 23 8 17 19
24 41 24 23 0 33 -7 48 -36z m-1163 -2 c9 -10 17 -22 17 -27 0 -5 13 -27 28
-48 15 -21 49 -74 76 -118 46 -73 48 -80 38 -113 -9 -29 -8 -42 4 -65 14 -27
12 -38 -9 -63 -4 -5 -25 -35 -45 -66 -146 -220 -145 -219 -177 -219 -28 1 -38
13 -139 167 -61 93 -104 169 -97 171 16 5 13 43 -4 66 -8 11 -15 23 -15 27 0
8 85 135 102 153 7 8 20 24 28 36 8 12 20 28 25 34 6 6 21 28 35 48 23 34 29
37 70 36 30 0 51 -6 63 -19z m571 6 c5 -14 75 -125 152 -239 30 -46 32 -52 20
-80 -8 -21 -9 -41 -3 -61 7 -27 2 -40 -55 -125 -35 -52 -79 -121 -98 -152 -32
-52 -38 -58 -70 -58 -34 1 -38 5 -105 110 -38 60 -73 110 -77 110 -5 0 -8 6
-8 14 0 7 -10 26 -22 41 -19 24 -20 31 -9 62 10 27 10 41 1 63 -11 27 -6 36
87 179 l98 151 41 0 c28 0 44 -5 48 -15z m-309 -311 c43 -43 -19 -110 -65 -69
-22 20 -27 70 -7 78 25 11 56 7 72 -9z m589 -10 c12 -30 6 -51 -19 -64 -50
-27 -102 29 -63 68 18 18 75 15 82 -4z m574 4 c33 -33 -7 -100 -47 -79 -11 6
-25 20 -30 30 -22 39 44 82 77 49z m562 -23 c0 -41 -22 -58 -56 -43 -27 12
-37 33 -29 59 5 14 16 19 46 19 38 0 39 -1 39 -35z m-2320 11 c15 -20 9 -56
-12 -70 -14 -8 -21 -6 -32 9 -21 27 -20 52 2 64 23 14 28 13 42 -3z m609 -108
c6 -13 19 -35 29 -49 47 -73 91 -138 124 -188 33 -50 35 -57 22 -75 -19 -28
-18 -49 6 -79 l20 -25 -25 -30 c-14 -16 -25 -33 -25 -36 0 -4 -5 -12 -10 -19
-20 -22 -80 -119 -80 -127 0 -5 -6 -13 -12 -17 -15 -9 -36 -41 -44 -65 -4 -12
-17 -18 -35 -18 -16 0 -32 -1 -36 -1 -5 -1 -19 17 -33 39 -30 49 -121 185
-129 192 -4 3 -19 23 -34 46 -24 35 -26 45 -17 68 7 21 7 35 -3 54 -15 31 -9
42 95 186 32 44 58 85 58 92 0 6 7 14 15 18 8 3 15 11 15 19 0 41 79 53 99 15z
m1221 -105 c41 -68 83 -136 92 -151 28 -43 32 -54 21 -61 -21 -13 -24 -51 -7
-80 17 -29 17 -30 -13 -68 -17 -21 -43 -58 -59 -83 -16 -25 -33 -52 -39 -61
-5 -9 -25 -42 -44 -73 -19 -33 -44 -62 -59 -67 -14 -5 -26 -8 -27 -7 -2 2 -18
28 -36 58 -18 30 -35 57 -38 60 -9 8 -30 43 -41 68 -5 12 -13 22 -17 22 -5 0
-13 9 -18 19 -6 11 -23 40 -38 66 -27 44 -28 46 -11 75 15 24 16 33 5 56 -10
23 -10 29 3 36 9 5 16 13 16 18 0 6 19 37 43 69 23 32 65 97 94 142 74 119 79
118 173 -38z m-946 -212 c35 -39 -16 -97 -63 -72 -23 13 -29 59 -9 79 18 18
53 14 72 -7z m596 -33 c0 -16 -9 -33 -22 -42 -21 -15 -24 -14 -46 8 -28 28
-23 63 11 75 30 11 57 -8 57 -41z m-1179 20 c23 -26 23 -28 3 -56 -22 -32 -71
-30 -84 3 -23 61 39 102 81 53z m1754 -19 c9 -27 -24 -59 -61 -59 -33 0 -44
13 -44 55 0 46 91 50 105 4z m-1725 -119 c8 -9 20 -24 25 -33 6 -9 46 -69 91
-135 70 -104 79 -122 68 -137 -11 -15 -11 -24 1 -52 14 -34 14 -36 -30 -99
-25 -35 -45 -66 -45 -69 0 -3 -19 -33 -42 -68 -24 -34 -49 -75 -57 -90 -8 -15
-19 -27 -25 -26 -36 3 -58 20 -88 64 -19 28 -55 81 -81 118 -26 38 -47 70 -47
72 0 2 -11 16 -26 32 -21 23 -24 33 -18 66 4 25 1 48 -7 63 -10 20 -10 27 3
41 21 24 158 223 158 230 0 3 9 18 20 33 23 33 60 43 75 21 6 -8 17 -22 25
-31z m580 11 c11 -22 33 -60 50 -84 16 -25 30 -47 30 -51 0 -9 104 -161 113
-165 5 -1 1 -12 -9 -22 -12 -14 -15 -29 -11 -59 4 -29 0 -46 -12 -62 -10 -13
-20 -27 -22 -33 -2 -5 -26 -43 -54 -83 -71 -104 -83 -124 -94 -148 -14 -32
-67 -31 -75 2 -4 13 -11 24 -16 24 -6 0 -10 5 -10 10 0 6 -20 39 -45 74 -25
36 -45 67 -45 70 0 3 -20 34 -45 70 -39 57 -43 69 -33 86 10 15 10 27 -1 55
-11 32 -11 39 3 54 9 10 16 22 16 28 0 6 3 13 8 15 8 3 52 64 52 72 0 3 20 35
45 72 25 36 45 68 45 71 0 18 37 43 61 43 23 0 32 -8 49 -39z m561 12 c14 -29
80 -134 89 -143 8 -8 29 -43 37 -60 3 -8 21 -37 40 -63 33 -47 34 -50 18 -74
-15 -23 -15 -26 0 -50 16 -24 16 -27 -4 -54 -12 -15 -21 -33 -21 -39 0 -5 -4
-10 -8 -10 -5 0 -14 -10 -20 -22 -32 -61 -62 -103 -72 -100 -6 1 -9 -2 -5 -8
3 -5 -4 -25 -17 -42 -13 -18 -28 -42 -33 -53 -6 -12 -23 -21 -41 -23 -27 -3
-34 2 -48 30 -22 44 -39 70 -52 83 -6 5 -26 35 -44 65 -19 30 -47 72 -63 93
-21 27 -26 41 -19 50 16 19 19 69 5 74 -8 3 -13 -4 -13 -17 0 -40 -18 -60 -54
-60 -40 0 -53 28 -33 73 10 22 18 27 47 27 31 0 39 6 66 48 17 26 59 89 93
140 33 51 61 98 61 103 0 5 4 9 8 9 5 0 14 11 20 25 15 33 45 32 63 -2z m578
-28 c12 -22 30 -53 41 -70 11 -16 23 -37 27 -45 3 -8 18 -33 32 -55 79 -123
84 -134 70 -151 -7 -8 -9 -30 -6 -54 5 -37 0 -49 -52 -128 -32 -48 -73 -113
-92 -145 -28 -48 -38 -57 -56 -52 -12 3 -25 1 -28 -5 -10 -17 -21 -11 -36 18
-7 15 -34 59 -58 97 -25 39 -56 90 -69 115 -13 25 -31 53 -39 62 -11 12 -12
21 -4 37 15 27 14 57 -3 74 -12 12 -10 21 17 66 18 29 37 60 42 70 6 9 39 60
75 113 57 84 68 96 92 95 20 -2 32 -12 47 -42z m-2017 -307 c8 -24 -4 -57 -24
-64 -21 -6 -68 20 -68 39 1 47 78 68 92 25z m577 9 c6 -8 9 -24 6 -37 -5 -27
-4 -26 -31 -34 -37 -11 -64 27 -48 68 7 20 57 21 73 3z m1151 -16 c17 -32 12
-48 -20 -61 -26 -11 -33 -10 -50 5 -26 23 -25 40 2 59 30 21 55 20 68 -3z
m558 -43 c4 -34 -25 -52 -61 -39 -54 21 -37 74 21 69 32 -3 37 -7 40 -30z
m-528 -109 c19 -34 44 -78 55 -98 12 -20 40 -64 63 -99 38 -57 41 -65 28 -83
-14 -21 -10 -59 8 -71 10 -6 -15 -63 -34 -78 -8 -7 -92 -136 -121 -186 -21
-38 -25 -41 -47 -31 -17 8 -29 8 -43 -1 -24 -15 -29 -15 -29 1 0 7 -13 28 -29
47 -15 19 -31 45 -35 58 -4 12 -11 22 -15 22 -4 0 -13 12 -20 26 -6 15 -28 46
-47 70 -31 37 -35 49 -30 76 3 18 2 48 -3 65 -9 29 -5 39 40 102 27 38 58 88
70 110 12 23 25 41 30 41 5 0 9 5 9 11 0 7 9 27 21 45 17 29 26 34 58 34 34 0
38 -4 71 -61z m-535 -57 c39 -57 77 -114 85 -126 8 -13 23 -35 33 -49 14 -20
16 -30 8 -46 -15 -26 -14 -68 1 -73 7 -3 -7 -30 -35 -70 -26 -36 -53 -76 -60
-89 -7 -13 -30 -52 -52 -86 -39 -61 -40 -62 -82 -60 -39 2 -44 5 -64 43 -11
23 -54 88 -94 145 -45 64 -70 108 -64 113 14 16 10 68 -7 87 -14 16 -12 22 30
84 25 36 46 68 46 70 0 4 85 130 100 150 5 6 26 10 47 10 37 1 39 -1 108 -103z
m-926 -220 c6 -10 7 -29 4 -41 -5 -18 -12 -22 -42 -19 -29 2 -37 8 -39 26 -2
13 2 30 8 38 17 20 57 18 69 -4z m581 -13 c15 -27 12 -43 -10 -57 -31 -19 -70
3 -70 40 0 46 58 59 80 17z m1133 13 c37 -41 -26 -98 -72 -65 -22 15 -21 42 1
71 15 18 52 15 71 -6z m-579 2 c26 -10 20 -58 -8 -73 -26 -14 -41 -10 -55 18
-7 13 -6 24 5 39 16 23 30 27 58 16z m-1399 -396 c9 -27 -20 -68 -49 -68 -40
0 -50 59 -15 83 25 18 56 11 64 -15z m545 -7 c16 -31 12 -49 -15 -67 -23 -15
-27 -15 -50 0 -27 18 -33 54 -13 74 19 19 66 15 78 -7z m576 -12 c19 -18 21
-25 12 -45 -16 -35 -48 -41 -70 -14 -23 28 -23 56 0 69 25 15 33 13 58 -10z
m582 -13 c4 -32 -5 -45 -36 -51 -23 -4 -73 46 -53 53 6 2 11 10 11 18 0 11 10
14 38 12 32 -3 37 -6 40 -32z m537 15 c7 -24 -2 -48 -22 -55 -19 -8 -63 19
-63 37 0 37 74 53 85 18z"/>
</g>
</svg>
